<?xml version="1.0" encoding="utf-8"?>
<!-- Generator: Adobe Illustrator 22.1.0, SVG Export Plug-In . SVG Version: 6.00 Build 0)  -->
<svg version="1.1" id="图层_1" xmlns="http://www.w3.org/2000/svg" xmlns:xlink="http://www.w3.org/1999/xlink" x="0px" y="0px"
	 viewBox="0 0 507.3 626" style="enable-background:new 0 0 507.3 626;" xml:space="preserve">
<style type="text/css">
	.st0{fill:#161E42;}
	.st1{fill:#F7D46F;}
	.st2{fill:#FFFFFF;}
	.st3{font-family:'MicrosoftYaHei';}
	.st4{font-size:10.7798px;}
	.st5{fill:#5BBB91;}
	.st6{fill:#EE7D60;}
	.st7{fill:#2E9DD9;}
	.st8{font-size:10.9088px;}
	.st9{fill:#2A2D65;}
</style>
<g>
	<path class="st0" d="M507.3,81.3L480.8,0.8h-216c0,0-56.1-9-97.1,31.7c-40.9,40.7-40.9,83.5-40.9,83.5s-0.7,58-17.8,99.3
		c-13.6,32.9-50.1,65.4-67.9,79.9c-7.7,6.3-15.2,13.1-22.4,20.5L0,335.1V425l28.2,54.6v127.7c0,10.4,6.5,18.7,14.5,18.7h346l30.3-30
		l2.6,1.1c1.2,0.5,2.5,0.2,3.5-0.8l51.9-52.9c1.4-1.4,1.8-3.9,1.1-5.9l-0.6-1.6l29.8-29.5V81.3L507.3,81.3z M492,489.9l-0.7,6.3
		c-0.9,8.6-4.4,16.2-9.9,21.6l-80.2,81.6c-4,3.9-8.8,6.2-13.8,6.8l-8.1,0.9H54.2c-7.7,0-14.1-8.2-14.1-18.1l0.8-110.7L12,425.9
		v-74.4l17.8-18.3c6.7-6.8,21-19.3,21-19.4l0.1-0.1H100l0.2-45l0.1-0.1c0.2-0.3,19.5-30.7,24.4-42.6c15.9-38.4,15.5-94.8,15.5-95.3
		c0-0.4,0.4-41.1,38.6-79.1c38.2-37.9,84-34.1,84.4-34h203.5l0.1,0.3L492,93.8V489.9z"/>
	<path class="st0" d="M263.3,18.7c-0.5,0-46-3.9-83.9,33.8c-37.9,37.6-38.3,77.8-38.3,78.2c0,0.6,0.4,57.2-15.6,95.8
		c-4.9,11.6-23,40.3-24.4,42.6l-0.2,45.6H51.3c-1.3,1.1-14.6,12.6-20.9,19.2l-17.5,18v73.5l28.9,52.5L40.9,589
		c0,9.5,5.9,17.1,13.2,17.1h325.1l8.1-0.9c4.9-0.6,9.5-2.9,13.4-6.6l80.2-81.6c5.3-5.2,8.7-12.6,9.6-20.9l0.7-6.2V94.1l-24.9-75.3
		L263.3,18.7L263.3,18.7z M121.3,469.2l-9.2-15v-10.6h64.6c0,0,2.6,16.8,7.8,25.6H121.3z M342.3,437.5c0,0-1.4,13.1-5.6,19
		c-4.2,5.8-16.4,10.5-16.4,10.5h-26.5h-23h-23.7c0,0-12-3.1-17.3-9.7c-5.3-6.7-8.8-24.5-3-33.7l8.9-16.2c0,0,32.1-57.8,83.2-42.8
		c22,6.4,23.3,36.4,23.3,36.4v36.5L342.3,437.5L342.3,437.5z M325.6,316.5c0.2,4.6-2.7,8.4-6.2,8.4h-25.8c-3.9,0-6.8-4.6-6.2-9.5
		c0,0,5.4-20.7,7-31.2s2.1-33.6,2.1-33.6c0.6-3.9,3.1-6.6,6.2-6.6h15c3.4,0,6.1,3.5,6.2,7.7c0,0-0.7,24.6-0.9,31.1
		C322.7,289.3,325.6,316.5,325.6,316.5z M346.6,107.9c-2.6,11-7.9,32.6-9.4,38.6c-2,8.3-6.9,34.8-6.9,34.8c-0.7,3.1-2.8,5.2-5.3,5.4
		l-23.5,1.2c-3,0.2-5.6-2.4-6.2-6.2c0,0-2.6-16.9-7.1-35.3c-4.4-18.3-11.1-37.3-11.1-37.3c-1.2-3.8,1-7.8,4.1-7.8h55.6h6.2
		C345.5,101.4,347.3,104.7,346.6,107.9z"/>
</g>

<g>
	<path class="st1" d="M189.9,315.6h79.4c0,0,6.2-16.2,10.4-41.9h-89.8L189.9,315.6L189.9,315.6z"/>
	<text transform="matrix(1 0 0 1 221.8162 290.7861)" class="st2 st3 st4">127</text>
	<text transform="matrix(1 0 0 1 221.8162 303.7246)" class="st2 st3 st4">星巴克</text>
</g>
<g>
	<path class="st5" d="M181,50.9c-0.8,0.7-1.6,1.6-2.4,2.4C164,68.8,153.5,81.8,147,99.9h42.4h0.1V58L181,50.9z"/>
	<text transform="matrix(1 0 0 1 156.0449 83.948)" class="st2 st3 st4">121</text>
	<text transform="matrix(1 0 0 1 156.0449 94.885)" class="st2 st3 st4">星巴克</text>
</g>
<g>
	<polygon class="st5" points="239,99.7 191.5,59.7 191.5,99.9 228.9,99.9 	"/>
	<text transform="matrix(1 0 0 1 194.0449 75.5105)" class="st2 st3 st4">122</text>
	<text transform="matrix(1 0 0 1 194.0449 86.4475)" class="st2 st3 st4">星巴克</text>
</g>
<g>
	<path class="st5" d="M383.9,19h70.9l3.7,10.9l-63.1,44.7c-5.2,3.7-11.6-0.9-11.6-8.4V19H383.9z"/>
	<text transform="matrix(1 0 0 1 394.1086 39.0629)" class="st2 st3 st4">103</text>
	<text transform="matrix(1 0 0 1 394.1086 51.998)" class="st2 st3 st4">星巴克</text>
</g>
<g>
	<path class="st5" d="M131.4,209.7c-3.8,13.2-9.8,28-19,41l34.9,21.9h28.4v-41v-0.9v-21L131.4,209.7L131.4,209.7L131.4,209.7z"/>
	<text transform="matrix(1 0 0 1 135.1379 235.6718)" class="st2 st3 st4">118</text>
	<text transform="matrix(1 0 0 1 135.1379 248.6084)" class="st2 st3 st4">星巴克</text>
</g>
<g>
	<path class="st5" d="M199,229.7l-9.1,0.2v41.7h89.7c2-12.1,3.5-26.3,3.6-41.9h-57.4L199,229.7L199,229.7z"/>
	<text transform="matrix(1 0 0 1 221.8162 246.7636)" class="st2 st3 st4">126</text>
	<text transform="matrix(1 0 0 1 221.8162 259.6992)" class="st2 st3 st4">星巴克</text>
</g>
<g>
	<polygon class="st5" points="394,370.2 424.2,370.2 424.2,340.6 413.4,340.6 356.9,340.6 338.6,340.6 338.6,344.6 356.9,391.3
		394,391.3 	"/>
	<text transform="matrix(1 0 0 1 356.0482 358.4199)" class="st2 st3 st4">141</text>
	<text transform="matrix(1 0 0 1 356.0482 371.3554)" class="st2 st3 st4">星巴克</text>
</g>
<g>
	<rect x="255.5" y="487" class="st6" width="40" height="47.2"/>
	<text transform="matrix(1 0 0 1 260.078 510.1015)" class="st2 st3 st4">137</text>
	<text transform="matrix(1 0 0 1 260.078 521.037)" class="st2 st3 st4">星巴克</text>
</g>
<g>
	<polygon class="st7" points="257.2,121.9 239.9,101.9 229.8,101.9 229.8,121.1 	"/>
	<text transform="matrix(1 0 0 1 229.8132 110.2031)" class="st2 st3 st4">123</text>
	<text transform="matrix(1 0 0 1 229.8132 123.1367)" class="st2 st3 st4">星巴克</text>
</g>
<g>
	<path class="st7" d="M141.9,120.5h47.6V102H147C144.9,107.5,143.2,113.6,141.9,120.5z"/>
	<text transform="matrix(1 0 0 1 152.9084 109.125)" class="st2 st3 st4">120</text>
	<text transform="matrix(1 0 0 1 152.9084 122.06)" class="st2 st3 st4">星巴克</text>
</g>
<g>
	<rect x="356.9" y="393.5" class="st7" width="37.2" height="52.8"/>
	<text transform="matrix(1 0 0 1 361.7601 417.6816)" class="st2 st3 st4">140</text>
	<text transform="matrix(1 0 0 1 361.7601 430.6152)" class="st2 st3 st4">星巴克</text>
</g>
<g>
	<path class="st7" d="M269.2,142.1H233v41h46.5C275.7,156.9,269.2,142.1,269.2,142.1z"/>
	<text transform="matrix(1 0 0 1 237.3612 161.7324)" class="st2 st3 st4">124</text>
	<text transform="matrix(1 0 0 1 237.3612 172.6298)" class="st2 st3 st4">星巴克</text>
</g>
<g>
	<path class="st7" d="M140.1,160.1c0,8.9-0.7,17.4-2.1,26h51.3v-43.4h-48.7C140.3,148,140.1,153.8,140.1,160.1z"/>
	<text transform="matrix(1 0 0 1 144.4183 160.3903)" class="st2 st3 st4">119</text>
	<text transform="matrix(1 0 0 1 144.4183 173.3278)" class="st2 st3 st4">星巴克</text>
</g>
<g>
	<rect x="278" y="19" class="st7" width="42.1" height="55.2"/>
	<text transform="matrix(1 0 0 1 289.2756 42.0283)" class="st2 st3 st4">102</text>
	<text transform="matrix(1 0 0 1 289.2756 51.9648)" class="st2 st3 st4">星巴克</text>
</g>
<g>
	<path class="st6" d="M255.3,19v48.9c4.6,4.1,10,6.2,15.7,6.2h6.1V19H255.3z"/>
	<text transform="matrix(1 0 0 1 257.2777 56.499)" class="st2 st3 st4">1001</text>
	<text transform="matrix(1 0 0 1 258.0736 66.4365)" class="st2 st3 st4">星巴克</text>
</g>
<g>
	<path class="st6" d="M279.6,185h-44.9H233v42.5h49.6c0-1,0-1.8,0-2.9C282.5,209.6,281.2,196.4,279.6,185z"/>
	<text transform="matrix(1 0 0 1 237.3612 202.457)" class="st2 st3 st4">125</text>
	<text transform="matrix(1 0 0 1 237.3612 215.3935)" class="st2 st3 st4">星巴克</text>
</g>
<g>
	<polygon class="st7" points="466.4,55.3 424.5,84.8 434.2,97.1 434.2,122.8 480.1,122.8 480.1,97.1 480.1,96.1 480.1,93.8 	"/>
	<text transform="matrix(1 0 0 1 442.3402 106.6574)" class="st2 st3 st4">104</text>
	<text transform="matrix(1 0 0 1 442.3402 116.5922)" class="st2 st3 st4">星巴克</text>
</g>
<g>
	<rect x="434.2" y="124.1" class="st1" width="45.9" height="46.2"/>
	<text transform="matrix(1 0 0 1 441.3812 145.1909)" class="st2 st3 st4">105</text>
	<text transform="matrix(1 0 0 1 441.3812 158.1254)" class="st2 st3 st4">星巴克</text>
</g>
<g>
	<polygon class="st5" points="422.6,86.3 432.7,99.1 432.7,142.2 406,142.2 381.5,115 	"/>
	<text transform="matrix(1 0 0 1 397.8099 115.3068)" class="st2 st3 st4">146</text>
	<text transform="matrix(1 0 0 1 397.8099 128.2421)" class="st2 st3 st4">星巴克</text>
</g>
<g>
	<path class="st6" d="M432.7,144.7v25.6h-83.5c0,0,5.7-18,11.8-28.8c6.2-10.9,19.1-25.5,19.1-25.5l25.8,28.7H432.7z"/>
	<text transform="matrix(1 0 0 1 368.8958 145.1938)" class="st2 st3 st4">145</text>
	<text transform="matrix(1 0 0 1 368.8958 158.1284)" class="st2 st3 st4">星巴克</text>
</g>
<g>
	<path class="st5" d="M349.2,171.9h75.4v55.6h-87.5c0,0,2.9-18.7,5.3-30.1C344.9,186.1,349.2,171.9,349.2,171.9z"/>
	<text transform="matrix(1 0 0 1 365.5746 207.228)" class="st2 st3 st4">144</text>
	<text transform="matrix(1 0 0 1 383.45 207.228)" class="st2 st3 st4">星巴克</text>
</g>
<g>
	<rect x="337.1" y="237.2" class="st7" width="9.7" height="41.5"/>
	<text transform="matrix(1 0 0 1 336.59 267.3513)" class="st2 st3 st4">143</text>
	<text transform="matrix(1 0 0 1 355.84 267.5744)" class="st2 st3 st4">星巴克</text>
</g>
<g>
	<rect x="337.1" y="281" class="st1" width="24.7" height="47.2"/>
	<text transform="matrix(1 0 0 1 336.59 307.2507)" class="st2 st3 st4">142</text>
	<text transform="matrix(1 0 0 1 355.84 307.4748)" class="st2 st3 st4">星巴克</text>
</g>
<g>
	<polygon class="st1" points="245.4,359.2 215,359.2 215,329.3 266,329.3 	"/>
	<text transform="matrix(1 0 0 1 221.2987 339.5381)" class="st2 st3 st4">128</text>
	<text transform="matrix(1 0 0 1 221.2987 352.4726)" class="st2 st3 st4">星巴克</text>
</g>
<g>
	<polygon class="st7" points="197.7,426.2 190.9,426.2 190.9,360.4 244,360.4 	"/>
	<text transform="matrix(1 0 0 1 197.2507 382.8388)" class="st2 st3 st4">129</text>
	<text transform="matrix(1 0 0 1 197.2507 395.7734)" class="st2 st3 st4">星巴克</text>
</g>
<g>
	<rect x="147.2" y="360.4" class="st6" width="42.6" height="65.9"/>
	<text transform="matrix(1 0 0 1 154.7048 382.8388)" class="st2 st3 st4">130</text>
	<text transform="matrix(1 0 0 1 154.7048 395.7734)" class="st2 st3 st4">星巴克</text>
</g>
<g>
	<rect x="103.4" y="360.4" class="st6" width="42.6" height="65.9"/>
	<text transform="matrix(1 0 0 1 112.9827 382.8388)" class="st2 st3 st4">131</text>
	<text transform="matrix(1 0 0 1 112.9827 395.7734)" class="st2 st3 st4">星巴克</text>
</g>
<g>
	<rect x="60" y="360.4" class="st1" width="42.6" height="65.9"/>
	<text transform="matrix(1 0 0 1 68.7938 382.8388)" class="st2 st3 st4">132</text>
	<text transform="matrix(1 0 0 1 68.7938 395.7734)" class="st2 st3 st4">星巴克</text>
</g>
<g>
	<path class="st5" d="M45.4,487h78.8v106.2h-62c-3.5,0-6.4-3.6-6.4-7.9v-80L45.4,487z"/>
	<text transform="matrix(1 0 0 1 74.9594 530.5703)" class="st2 st3 st4">113</text>
	<text transform="matrix(1 0 0 1 74.9594 543.5058)" class="st2 st3 st4">星巴克</text>
</g>
<g>
	<rect x="157.4" y="487" class="st6" width="31.4" height="47.2"/>
	<text transform="matrix(1 0 0 1 161.1903 511.1738)" class="st2 st3 st4">134</text>
	<text transform="matrix(1 0 0 1 161.1903 522.1093)" class="st2 st3 st4">星巴克</text>
</g>
<g>
	<rect x="125" y="487" class="st6" width="31.1" height="47.2"/>
	<text transform="matrix(1 0 0 1 128.1605 522.2441)" class="st2 st3 st4">133</text>
	<text transform="matrix(1 0 0 1 128.1605 533.1796)" class="st2 st3 st4">星巴克</text>
</g>
<g>
	<rect x="222.5" y="487" class="st7" width="31.4" height="47.2"/>
	<text transform="matrix(1 0 0 1 224.7834 521.7441)" class="st2 st3 st4">136</text>
	<text transform="matrix(1 0 0 1 224.7834 532.6796)" class="st2 st3 st4">星巴克</text>
</g>
<g>
  <rect x="190" y="486.3" class="st1" width="31.4" height="47.2"/>
	<text transform="matrix(1 0 0 1 193.2533 499.1738)" class="st2 st3 st4">135</text>
	<text transform="matrix(1 0 0 1 193.2533 510.1093)" class="st2 st3 st4">星巴克</text>
</g>
<g>
	<polygon class="st1" points="221.4,535.7 196.1,535.7 190,535.7 190,593.2 196.1,593.2 221.4,593.2 254,593.2 254,535.7 	"/>
	<text transform="matrix(1 0 0 1 208.4871 561.6445)" class="st2 st3 st4">112</text>
	<text transform="matrix(1 0 0 1 208.4871 574.581)" class="st2 st3 st4">星巴克</text>
</g>
<g>
	<rect x="255.5" y="535.7" class="st7" width="40" height="57.4"/>
	<text transform="matrix(1 0 0 1 261.1034 561.6445)" class="st2 st3 st4">111</text>
	<text transform="matrix(1 0 0 1 261.1034 574.581)" class="st2 st3 st4">星巴克</text>
</g>
<g>
	<path class="st6" d="M361.7,555.3h-12.3v-9.2h-10.9v-39.7h-14.6v-17.6c0,0,15.9-3.1,27.5,7.1c11.7,10.2,10.3,12.2,10.3,12.2V555.3z
		"/>
	<text transform="matrix(1 0 0 1 332.061 510.0381)" class="st2 st3 st4">138</text>
	<text transform="matrix(1 0 0 1 332.061 522.9736)" class="st2 st3 st4">星巴克</text>
</g>
<g>
	<polygon class="st7" points="380.5,582.3 401,561.9 364,508.6 364,582.3 	"/>
	<text transform="matrix(1 0 0 1 367.1566 550.7929)" class="st2 st3 st4">110</text>
	<text transform="matrix(1 0 0 1 367.1566 563.7275)" class="st2 st3 st4">星巴克</text>
</g>
<g>
	<polygon class="st5" points="357.5,450.1 429.2,450.1 429.2,486.2 420.2,497.4 	"/>
	<text transform="matrix(1 0 0 1 387.1996 461.3427)" class="st2 st3 st4">139</text>
	<text transform="matrix(1 0 0 1 387.1996 474.2773)" class="st2 st3 st4">星巴克</text>
</g>
<g>
	<rect x="430.6" y="450.1" class="st7" width="49.7" height="16.7"/>
	<text transform="matrix(1 0 0 1 443.8752 453.1933)" class="st2 st3 st4">108</text>
	<text transform="matrix(1 0 0 1 443.8752 466.1269)" class="st2 st3 st4">星巴克</text>
</g>
<g>
	<polygon class="st7" points="430.6,468.8 473.5,468.8 473.5,491.2 447.7,515.6 422.5,498.7 430.8,488.4 	"/>
	<text transform="matrix(1 0 0 1 438.8381 485.7959)" class="st2 st3 st4">109</text>
	<text transform="matrix(1 0 0 1 438.8381 498.7304)" class="st2 st3 st4">星巴克</text>
</g>
<g>
	<path class="st1" d="M12.3,358.5h90.3V325H58.9v-10.4h-7.2L15,349.1c-1.6,1.4-2.5,3.8-2.5,6.2L12.3,358.5z"/>
	<text transform="matrix(1 0 0 1 44.1296 339.0273)" class="st2 st3 st4">117</text>
	<text transform="matrix(1 0 0 1 44.1296 351.9638)" class="st2 st3 st4">星巴克</text>
</g>
<g>
	<rect x="12.3" y="360.4" class="st7" width="46.6" height="21.1"/>
	<text transform="matrix(1 0 0 1 18.6981 369.9599)" class="st2 st3 st8">116</text>
	<text transform="matrix(1 0 0 1 18.6981 379.956)" class="st2 st3 st8">星巴克</text>
</g>
<g>
	<rect x="12.3" y="382.9" class="st6" width="46.6" height="21.1"/>
	<text transform="matrix(1 0 0 1 18.4901 392.6416)" class="st2 st3 st8">115</text>
	<text transform="matrix(1 0 0 1 18.6449 402.1416)" class="st2 st3 st4">星巴克</text>
</g>
<g>
	<rect x="12.3" y="405.2" class="st6" width="46.6" height="21.1"/>
	<text transform="matrix(1 0 0 1 18.6449 415.6953)" class="st2 st3 st4">114</text>
	<text transform="matrix(1 0 0 1 18.6449 425.5752)" class="st2 st3 st4">星巴克</text>
</g>
<g>
	<path class="st6" d="M250.6,19c0,0-18.3,2.6-38.4,11.8l42.3,37.1V19C254.5,19,250.6,19,250.6,19z"/>
	<text transform="matrix(1 0 0 1 226.0129 33.5957)" class="st2 st3 st4">101</text>
	<text transform="matrix(1 0 0 1 226.0129 43.5302)" class="st2 st3 st4">星巴克</text>
</g>
<g>
	<rect x="293.8" y="158.1" class="st9" width="37.8" height="13.8"/>
	<text transform="matrix(1 0 0 1 298.0632 169.7028)" class="st2 st3 st4">附149</text>
	<text transform="matrix(1 0 0 1 329.3157 169.7028)" class="st2 st3 st4">店铺名称</text>
</g>
<g>
	<polygon class="st9" points="245.5,69.8 260.1,82.3 250,94.4 235.2,82.1 	"/>
	<text transform="matrix(1 0 0 1 242.8079 85.9531)" class="st2 st3 st4">附147</text>
	<text transform="matrix(1 0 0 1 274.8079 85.9531)" class="st2 st3 st4">店铺名称</text>
</g>
<g>
	<rect x="302.2" y="183.5" class="st9" width="19.9" height="10.6"/>
	<text transform="matrix(1 0 0 1 298.0632 193.5014)" class="st2 st3 st4">附150</text>
	<text transform="matrix(1 0 0 1 328.2299 193.5014)" class="st2 st3 st4">店铺名称</text>
</g>
<g>
	<rect x="301.1" y="212.6" class="st9" width="19.9" height="10.6"/>
	<text transform="matrix(1 0 0 1 297.0632 222.895)" class="st2 st3 st4">附151</text>
	<text transform="matrix(1 0 0 1 327.2299 222.895)" class="st2 st3 st4">店铺名称</text>
</g>
<g>
	<rect x="299.3" y="242" class="st9" width="19.9" height="10.6"/>
	<text transform="matrix(1 0 0 1 294.0632 252.0034)" class="st2 st3 st4">附152</text>
	<text transform="matrix(1 0 0 1 324.2299 252.0034)" class="st2 st3 st4">店铺名称</text>
</g>
<g>
	<rect x="299" y="277.3" class="st9" width="19.9" height="10.6"/>
	<text transform="matrix(1 0 0 1 292.5007 287.0244)" class="st2 st3 st4">附153</text>
	<text transform="matrix(1 0 0 1 322.6674 287.0244)" class="st2 st3 st4">店铺名称</text>
</g>
<g>
	<rect x="156.6" y="438.8" class="st9" width="20.3" height="32.7"/>
	<text transform="matrix(1 0 0 1 160.2401 448.0508)" class="st2 st3 st4">附156</text>
	<text transform="matrix(1 0 0 1 191.9901 448.0508)" class="st2 st3 st4">店铺名称</text>
</g>
<g>
	<rect x="297.1" y="316.5" class="st9" width="19.9" height="10.6"/>
	<text transform="matrix(1 0 0 1 292.5007 325.7744)" class="st2 st3 st4">附154</text>
	<text transform="matrix(1 0 0 1 322.6674 325.7744)" class="st2 st3 st4">店铺名称</text>
</g>
<g>
	<rect x="126.3" y="438.8" class="st9" width="20.3" height="32.7"/>
	<text transform="matrix(1 0 0 1 130.62 470.9255)" class="st2 st3 st4">附157</text>
	<text transform="matrix(1 0 0 1 160.22 470.9255)" class="st2 st3 st4">店铺名称</text>
</g>
<g>
	<rect x="93.7" y="438.8" class="st9" width="20.3" height="32.7"/>
	<text transform="matrix(1 0 0 1 96.5009 459.9651)" class="st2 st3 st4">附158</text>
	<text transform="matrix(1 0 0 1 127.0009 459.9651)" class="st2 st3 st4">店铺名称</text>
</g>
<g>
	<rect x="62.3" y="438.8" class="st9" width="20.3" height="32.7"/>
	<text transform="matrix(1 0 0 1 67.0009 448.051)" class="st2 st3 st4">附159</text>
	<text transform="matrix(1 0 0 1 97.1259 448.051)" class="st2 st3 st4">店铺名称</text>
</g>
<g>
	<polygon class="st9" points="366,495.2 381.7,480 394.1,493 378.2,508.1 	"/>
	<text transform="matrix(1 0 0 1 368.6064 495.1245)" class="st2 st3 st4">附155</text>
	<text transform="matrix(1 0 0 1 368.6064 505.063)" class="st2 st3 st4">店铺名称</text>
</g>
<g>
	<polygon class="st9" points="377.8,90.4 394.5,79.1 403.7,92.4 387.2,103.8 	"/>
	<text transform="matrix(1 0 0 1 379.9595 84.8498)" class="st2 st3 st4">附148</text>
	<text transform="matrix(1 0 0 1 379.9595 96.1652)" class="st2 st3 st4">店铺名称</text>
</g>
<g>
	<polygon class="st5" points="175.7,315.6 100.6,315.6 101.4,269.1 111.2,252.8 147.1,274.8 175.7,274.8 	"/>
	<text transform="matrix(1 0 0 1 119.1379 288.182)" class="st2 st3 st4">附160</text>
	<text transform="matrix(1 0 0 1 119.1379 301.1185)" class="st2 st3 st4">星巴克</text>
</g>
</svg>
