<?xml version="1.0" encoding="utf-8"?>
<!-- Generator: Adobe Illustrator 22.1.0, SVG Export Plug-In . SVG Version: 6.00 Build 0)  -->
<svg version="1.1" id="图层_1" xmlns="http://www.w3.org/2000/svg" xmlns:xlink="http://www.w3.org/1999/xlink" x="0px" y="0px"
	 viewBox="0 0 504.1 621.7" style="enable-background:new 0 0 504.1 621.7;" xml:space="preserve">
<style type="text/css">
	.st0{fill:#171945;}
	.st1{fill:#FFDA6D;}
	.st2{fill:#FFFFFF;}
	.st3{font-family:'MicrosoftYaHei';}
	.st4{font-size:10.705px;}
	.st5{fill:#2BDFA0;}
	.st6{fill:#2A2D65;}
	.st7{font-size:12.846px;}
	.st8{fill:#01A9F7;}
	.st9{fill:#FF8160;}
	.st10{font-size:10.7798px;}
</style>
<g>
	<path class="st0" d="M504.1,80.7L504.1,80.7L477.6,0.8H263.1c0,0-55.7-8.9-96.4,31.5s-40.7,83-40.7,83s-0.7,57.6-17.8,98.7
		c-13.6,32.7-49.8,65-67.4,79.3c-7.7,6.2-15.1,13.1-22.2,20.4L0,332.8V422l28,54.2V603c0,10.2,6.4,18.6,14.4,18.6h343.8l30.1-29.7
		l2.6,1.1c1.2,0.5,2.5,0.2,3.5-0.8l51.6-52.6c1.3-1.4,1.8-3.8,1.1-5.8l-0.6-1.6l29.6-29.4V80.7z M488.8,486.5l-0.2,0.2l-28.4,28.5
		l0.4,1.1c0.8,2.2,0.3,4.6-1.1,6.1L407.8,574c-1,1-2.4,1.3-3.6,0.8l-2.2-0.9l-29.1,28.9h-319c-7.7,0-13.9-8.1-13.9-18l0.8-109.9
		l-28.8-52v-53.1l17.8-18.2c3.2-3.3,6.7-6.2,10-9.1c3.6-3.2,7.4-6.4,10.9-10c20.2-21.4,61.1-78.4,73.4-107.9
		c15.8-38.1,15.4-94,15.4-94.7c0-0.4,0.5-40.8,38.4-78.5s83.4-33.8,83.8-33.8h202.2l25,75.7L488.8,486.5L488.8,486.5z"/>
	<path class="st0" d="M261.6,18.6c-0.5,0-45.6-3.9-83.4,33.6c-37.6,37.4-38.1,77.2-38.1,77.7s0.5,56.9-15.5,95.1
		c-12.3,29.7-53.3,86.8-73.5,108.2c-3.5,3.7-7.3,7-10.9,10.1c-3.3,2.9-6.8,5.8-10,9l-17.4,17.8v52.2l28.8,52l-0.8,110.3
		c0,9.3,5.9,17,13.2,17h318.7l29.2-29l2.7,1.1c1,0.4,2.1,0.2,2.9-0.6l51.7-51.5c1.2-1.2,1.5-3.3,1-4.9l-0.7-1.9L488,486V93.3
		l-24.7-74.8L261.6,18.6z M120.6,465.9l-9.1-14.9v-10.6h64.2c0,0,2.6,16.7,7.8,25.4h-62.9V465.9z M340.2,434.5L340.2,434.5
		c-0.1,0-1.5,13.1-5.6,18.9c-4.1,5.7-16.2,10.3-16.2,10.3H292h-22.8h-23.5c0,0-11.9-3-17.2-9.6c-5.3-6.7-8.7-24.3-3-33.5l8.9-16.1
		c0,0,31.9-57.4,82.7-42.5c21.8,6.4,23.2,36.1,23.2,36.1v36.4L340.2,434.5L340.2,434.5z M323.5,314.2c0.2,4.5-2.7,8.3-6.2,8.3h-25.7
		c-3.9,0-6.8-4.5-6.1-9.4c0,0,5.4-20.6,6.9-30.9s2.1-33.4,2.1-33.4c0.6-3.8,3.1-6.6,6.1-6.6h14.8c3.3,0,6.1,3.4,6.2,7.7
		c0,0-0.6,24.4-1,30.8C320.3,287.2,323.5,314.2,323.5,314.2z M344.4,107.2c-2.7,10.9-7.9,32.4-9.4,38.3c-2,8.2-6.8,34.6-6.8,34.6
		c-0.7,3.1-2.8,5.2-5.3,5.3l-23.4,1.2c-2.9,0.2-5.5-2.5-6.2-6.1c0,0-2.6-16.8-7-35s-11.1-37-11.1-37c-1.1-3.8,1-7.8,4.1-7.8h55.2
		h6.1C343.4,100.7,345.2,104,344.4,107.2z"/>
</g>
<g>
	<path class="st1" d="M73.5,295c-5.7,5-10.9,9.5-15.8,13.7c-2,1.7-2,5.4,0.1,7.1c5.5,4.5,14,11.6,21.7,18.1l21.2-22.5h33.6v-41.5
		H97.5C90.1,279.2,82,287.6,73.5,295z"/>
	<text transform="matrix(1.0022 0 0 1 95.7563 288.4231)" class="st2 st3 st4">217</text>
	<text transform="matrix(1.0022 0 0 1 95.7573 301.2688)" class="st2 st3 st4">星巴克</text>
</g>
<g>
	<path class="st1" d="M189.2,312.4h75.9c0,0,6.2-16.1,10.2-41.5h-86.1L189.2,312.4L189.2,312.4z"/>
	<text transform="matrix(1.0022 0 0 1 220.3584 287.7483)" class="st2 st3 st4">223</text>
	<text transform="matrix(1.0022 0 0 1 220.3584 300.594)" class="st2 st3 st4">星巴克</text>
</g>
<g>
	<polygon class="st1" points="421.4,167.6 345.8,167.6 345.8,223.1 361.4,223.1 361.4,209.4 411.4,209.4 411.4,223.1 421.4,223.1
		"/>
	<text transform="matrix(1.0022 0 0 1 370.9199 185.0911)" class="st2 st3 st4">206</text>
	<text transform="matrix(1.0022 0 0 1 370.9199 197.9378)" class="st2 st3 st4">星巴克</text>
</g>
<g>
	<path class="st1" d="M392.3,447.6H361c0,0-2.2,21.7-14.2,28c-12,6.4-24.6,6.1-24.6,6.1V504h14.3v38.6h12v6.8h14.7v34.2h3.2
		l106.7-103.8v-32.3h-76.5h-4.3V447.6z"/>
	<text transform="matrix(1.0022 0 0 1 366.2051 492.5432)" class="st2 st3 st4">211</text>
	<text transform="matrix(1.0022 0 0 1 366.2051 505.3889)" class="st2 st3 st4">星巴克</text>
</g>
<g>
	<path class="st5" d="M69.7,377.5c-2.4-14.6-18.7-37.3-31.2-45.1h-7.6c-9.2,7.7-15.3,13.3-18.9,18v72.3h50.3
		C62.3,422.8,72.1,392.2,69.7,377.5z"/>
	<text transform="matrix(1.0022 0 0 1 24.9121 374.9153)" class="st2 st3 st4">216</text>
	<text transform="matrix(1.0022 0 0 1 24.9121 387.76)" class="st2 st3 st4">星巴克</text>
</g>
<g>
	<rect x="386" y="17.2" class="st5" width="60.9" height="63.4"/>
	<text transform="matrix(1.0022 0 0 1 399.5264 45.5086)" class="st2 st3 st4">204</text>
	<text transform="matrix(1.0022 0 0 1 399.5264 58.3543)" class="st2 st3 st4">星巴克</text>
</g>
<g>
	<path class="st1" d="M136.7,183.6c-2.5,14-6.8,27.6-12.4,40.3h51v-40.3H136.7z"/>
	<text transform="matrix(1.0022 0 0 1 142.1968 198.9949)" class="st2 st3 st4">231</text>
	<text transform="matrix(1.0022 0 0 1 142.1968 211.8416)" class="st2 st3 st4">星巴克</text>
</g>
<g>
	<path class="st5" d="M99,267.7h35.3v-0.1h41.1v-41.5h-51C117.5,241.3,108.9,255.1,99,267.7z"/>
	<text transform="matrix(1.0022 0 0 1 131.2397 243.0042)" class="st2 st3 st4">232</text>
	<text transform="matrix(1.0022 0 0 1 131.2397 255.8523)" class="st2 st3 st4">星巴克</text>
</g>
<g>
	<path class="st5" d="M195.3,227l-6.1,0.2v41.4h86.2c2-12,3.4-26.1,3.6-41.5h-57.1L195.3,227L195.3,227z"/>
	<text transform="matrix(1.0022 0 0 1 220.5532 244.0296)" class="st2 st3 st4">224</text>
	<text transform="matrix(1.0022 0 0 1 220.5532 256.8763)" class="st2 st3 st4">星巴克</text>
</g>
<g>
	<polygon class="st5" points="392.3,366.6 422.2,366.6 422.2,334.8 411.4,334.8 361,334.8 342.9,334.8 342.9,341.2 361,387.6
		392.3,387.6 	"/>
	<text transform="matrix(1.0022 0 0 1 360.2432 354.9104)" class="st2 st3 st4">209</text>
	<text transform="matrix(1.0022 0 0 1 360.2432 367.7561)" class="st2 st3 st4">星巴克</text>
</g>
<g>
	<rect x="204.6" y="484.2" class="st5" width="41" height="46.4"/>
	<text transform="matrix(1.0022 0 0 1 212.3848 503.552)" class="st2 st3 st4">213</text>
	<text transform="matrix(1.0022 0 0 1 212.3848 516.3968)" class="st2 st3 st4">星巴克</text>
</g>
<g>
	<polygon class="st5" points="247.2,484.2 247.2,530.6 254.9,530.6 254.9,583.7 294.9,583.7 294.9,484.2 	"/>
	<text transform="matrix(1.0022 0 0 1 258.3701 503.552)" class="st2 st3 st4">212</text>
	<text transform="matrix(1.0022 0 0 1 258.3701 516.3968)" class="st2 st3 st4">星巴克</text>
</g>
<g>
	<path class="st6" d="M190.7,356v28h25.6c0,0,8.5,2.2,19-13.6c2.8-4.3,5.9-9.2,8.9-14.3h-30.4h-23.1V356z"/>
	<text transform="matrix(1.0022 0 0 1 195.9736 366.1526)" class="st2 st3 st7">221</text>
	<text transform="matrix(1.0022 0 0 1 195.9736 381.5667)" class="st2 st3 st7">星巴克</text>
</g>
<g>
	<path class="st6" d="M213.8,324.8v28.1h32c8.2-13.8,15.8-28.1,15.8-28.1H213.8z"/>
	<text transform="matrix(1.0022 0 0 1 222.417 334.9485)" class="st2 st3 st7">222</text>
	<text transform="matrix(1.0022 0 0 1 222.417 351.3894)" class="st2 st3 st7">星巴克</text>
</g>
<g>
	<path class="st5" d="M237.4,98l-57.5-48.5c-0.9,0.7-1.6,1.6-2.4,2.5c-14.6,15.4-25,28.4-31.5,46.2h42.2h39.2L237.4,98L237.4,98z"/>
	<text transform="matrix(1.0022 0 0 1 168.2656 75.535)" class="st2 st3 st4">228</text>
	<text transform="matrix(1.0022 0 0 1 168.2656 88.3807)" class="st2 st3 st4">星巴克</text>
</g>
<g>
	<polygon class="st8" points="255.5,120 238.3,100.2 228.3,100.2 228.3,119.2 	"/>
	<text transform="matrix(1.0022 0 0 1 228.3032 108.4183)" class="st2 st3 st4">227</text>
	<text transform="matrix(1.0022 0 0 1 228.3032 121.263)" class="st2 st3 st4">星巴克</text>
</g>
<g>
	<path class="st8" d="M141,120h47.3v-19.8h-42.2C143.9,106.3,142.2,112.7,141,120z"/>
	<text transform="matrix(1.0022 0 0 1 151.9033 107.347)" class="st2 st3 st4">229</text>
	<text transform="matrix(1.0022 0 0 1 151.9033 120.1927)" class="st2 st3 st4">星巴克</text>
</g>
<g>
	<path class="st8" d="M101.4,313.3L81,335c8.3,7.1,15.7,13.7,17.5,16.3c0.7,0.9,1.3,1.9,1.7,2.9h34v-40.9H101.4z"/>
	<text transform="matrix(1.0022 0 0 1 106.2583 330.5125)" class="st2 st3 st4">218</text>
	<text transform="matrix(1.0022 0 0 1 102.5376 341.9925)" class="st2 st3 st4">星巴克</text>
</g>
<g>
	<rect x="360.3" y="389.7" class="st8" width="31.3" height="52.5"/>
	<text transform="matrix(1.0022 0 0 1 365.917 413.7591)" class="st2 st3 st4">210</text>
	<text transform="matrix(1.0022 0 0 1 363.1445 426.6038)" class="st2 st3 st4">星巴克</text>
</g>
<g>
	<polygon class="st8" points="351.9,275.3 411.4,275.3 411.4,278.5 452,278.5 452,245.8 342.9,245.8 342.9,278.5 351.9,278.5 	"/>
	<text transform="matrix(1.0022 0 0 1 374.4473 258.3333)" class="st2 st3 st4">207</text>
	<text transform="matrix(1.0022 0 0 1 374.4473 271.18)" class="st2 st3 st4">星巴克</text>
</g>
<g>
	<path class="st8" d="M266.6,142.1h-34.3v40.7h44.6C273,156.9,266.6,142.1,266.6,142.1z"/>
	<text transform="matrix(1.0022 0 0 1 238.4712 159.5892)" class="st2 st3 st4">226</text>
	<text transform="matrix(1.0022 0 0 1 238.4712 172.4349)" class="st2 st3 st4">星巴克</text>
</g>
<g>
	<path class="st8" d="M139.2,155.9c0,8.8-0.8,17.3-2.1,25.8h38.3v-43.1h-35.7C139.3,143.9,139.2,149.6,139.2,155.9z"/>
	<text transform="matrix(1.0022 0 0 1 143.4688 156.2347)" class="st2 st3 st4">230</text>
	<text transform="matrix(1.0022 0 0 1 143.4688 169.0823)" class="st2 st3 st4">星巴克</text>
</g>
<g>
	<rect x="145.3" y="356" class="st8" width="43.9" height="28"/>
	<text transform="matrix(1.0022 0 0 1 154.4395 367.5296)" class="st2 st3 st4">220</text>
	<text transform="matrix(1.0022 0 0 1 154.4395 380.3763)" class="st2 st3 st4">星巴克</text>
</g>
<g>
	<rect x="276.3" y="17.2" class="st8" width="41.8" height="54.8"/>
	<text transform="matrix(1.0022 0 0 1 284.3936 57.9043)" class="st2 st3 st4">203</text>
	<text transform="matrix(1.0022 0 0 1 284.3936 67.7519)" class="st2 st3 st4">星巴克</text>
</g>
<g>
	<rect x="146.2" y="484.2" class="st8" width="42.6" height="47.4"/>
	<text transform="matrix(1.0022 0 0 1 157.5347 504.054)" class="st2 st3 st4">214</text>
	<text transform="matrix(1.0022 0 0 1 154.7622 516.9007)" class="st2 st3 st4">星巴克</text>
</g>
<g>
	<path class="st8" d="M100.6,356c2.7,5.4,3.7,11.3,11.3,19.3c9.3,9.7,22.3,7.9,22.3,7.9V356H100.6z"/>
	<text transform="matrix(1.0022 0 0 1 106.2583 366.597)" class="st2 st3 st4">219</text>
	<text transform="matrix(1.0022 0 0 1 106.2583 379.4427)" class="st2 st3 st4">星巴克</text>
</g>
<g>
	<path class="st9" d="M253.6,17.2v48.6c4.6,4.1,10,6.2,15.6,6.2h6V17.2H253.6z"/>
	<text transform="matrix(1.0022 0 0 1 255.5859 29.5756)" class="st2 st3 st4">202</text>
	<text transform="matrix(1.0022 0 0 1 256.3789 39.4233)" class="st2 st3 st4">星巴克</text>
</g>
<g>
	<path class="st9" d="M248.9,17.2c0,0-18.1,2.7-38.1,11.8l42,36.8V17.2H248.9z"/>
	<text transform="matrix(1.0022 0 0 1 224.1642 42.1466)" class="st2 st3 st4">201</text>
	<text transform="matrix(1.0022 0 0 1 224.1642 51.9923)" class="st2 st3 st4">星巴克</text>
</g>
<g>
	<path class="st9" d="M275.3,183.8h-44.6h-9.6V226h57.1c0-0.9,0-1.8,0-2.8C278.2,208.2,277,195,275.3,183.8z"/>
	<text transform="matrix(1.0022 0 0 1 233.3501 201.0433)" class="st2 st3 st4">225</text>
	<text transform="matrix(1.0022 0 0 1 233.3501 213.8914)" class="st2 st3 st4">星巴克</text>
</g>
<g>
	<polygon class="st9" points="378.2,96.6 346.6,164.4 422.1,164.4 426.7,164.4 473.8,164.4 473.8,96.6 	"/>
	<text transform="matrix(1.0022 0 0 1 397.5137 128.6936)" class="st2 st3 st4">205</text>
	<text transform="matrix(1.0022 0 0 1 397.5137 141.5413)" class="st2 st3 st4">星巴克</text>
</g>
<g>
	<polygon class="st9" points="361,305.1 411.4,305.1 411.4,332.7 422.2,332.7 472,332.7 472,281.5 452,281.5 452,280.6 411.4,280.6
		411.4,288.8 351.9,288.8 351.9,280.6 342.9,280.6 342.9,324.3 361,324.3 	"/>
	<text transform="matrix(1.0022 0 0 1 428.6309 302.8064)" class="st2 st3 st4">208</text>
	<text transform="matrix(1.0022 0 0 1 428.6309 315.6531)" class="st2 st3 st4">星巴克</text>
</g>
<g>
	<path class="st9" d="M41.6,484.2V579c0,11.3,7.2,20.4,16.1,20.4h44.8v-15.9h21.8v-51.7h20.3v-47.4h-103
		C41.6,484.4,41.6,484.2,41.6,484.2z"/>
	<text transform="matrix(1.0022 0 0 1 67.4883 530.6077)" class="st2 st3 st4">215</text>
	<text transform="matrix(1.0022 0 0 1 67.4883 543.4554)" class="st2 st3 st4">星巴克</text>
</g>
<g>
	<polygon class="st6" points="237.4,67.4 255.5,86.7 245.3,96 227.2,76.5 	"/>
  <text transform="matrix(1.0022 0 0 1 230.6748 79.5779)" class="st2 st3 st4">附233</text>
	<text transform="matrix(1 0 0 1 231.1748 90.3894)" class="st2 st3 st10">店铺名称</text>
</g>
<g>
	<rect x="294.3" y="190.2" class="st6" width="33.2" height="16.3"/>
	<text transform="matrix(1.0022 0 0 1 296.0547 201.1395)" class="st2 st3 st4">附234</text>
	<text transform="matrix(1 0 0 1 295.0547 212.5114)" class="st2 st3 st10">店铺名称</text>
</g>
<g>
	<rect x="294.3" y="222.8" class="st6" width="33.2" height="16.3"/>
	<text transform="matrix(1.0022 0 0 1 296.0547 234.9729)" class="st2 st3 st4">附235</text>
	<text transform="matrix(1 0 0 1 295.0547 246.3448)" class="st2 st3 st10">店铺名称</text>
</g>
<g>
	<rect x="286.6" y="326.1" class="st6" width="33.2" height="16.3"/>
	<text transform="matrix(1.0022 0 0 1 288.1797 338.5559)" class="st2 st3 st4">附236</text>
	<text transform="matrix(1.0022 0 0 1 288.1797 350.5559)" class="st2 st3 st4">店铺名称</text>
</g>
<g>
	<rect x="149.5" y="409.8" class="st6" width="30.3" height="27.3"/>
	<text transform="matrix(1.0022 0 0 1 151.1797 434.5501)" class="st2 st3 st4">附238</text>
	<text transform="matrix(1 0 0 1 182.513 434.5501)" class="st2 st3 st10">店铺名称</text>
</g>
<g>
	<rect x="115" y="409.8" class="st6" width="30.3" height="27.3"/>
	<text transform="matrix(1.0022 0 0 1 114.4194 420.5764)" class="st2 st3 st4">附239</text>
	<text transform="matrix(1 0 0 1 145.7528 420.5764)" class="st2 st3 st10">店铺名称</text>
</g>
<g>
	<rect x="79" y="389.6" class="st6" width="29.4" height="27.3"/>
	<text transform="matrix(1.0022 0 0 1 79.832 407.9729)" class="st2 st3 st4">附240</text>
	<text transform="matrix(1 0 0 1 109.9987 407.9729)" class="st2 st3 st10">店铺名称</text>
</g>
<g>

	<rect x="95.3" y="439.7" transform="matrix(0.9638 -0.2665 0.2665 0.9638 -116.9376 43.674)" class="st6" width="14.3" height="26"/>
	<text transform="matrix(1.0022 0 0 1 92.2744 450.7991)" class="st2 st3 st4">附241</text>
	<text transform="matrix(1 0 0 1 122.4411 450.7991)" class="st2 st3 st10">店铺名称</text>
</g>
<g>

	<rect x="181.6" y="438.6" transform="matrix(0.9638 -0.2665 0.2665 0.9638 -113.5245 66.6357)" class="st6" width="14.3" height="26"/>
	<text transform="matrix(1.0022 0 0 1 182.4155 462.3889)" class="st2 st3 st4">附237</text>
	<text transform="matrix(1 0 0 1 212.5822 462.3889)" class="st2 st3 st10">店铺名称</text>
</g>
</svg>
