<?xml version="1.0" encoding="utf-8"?>
<!-- Generator: Adobe Illustrator 22.1.0, SVG Export Plug-In . SVG Version: 6.00 Build 0)  -->
<svg version="1.1" id="图层_1" xmlns="http://www.w3.org/2000/svg" xmlns:xlink="http://www.w3.org/1999/xlink" x="0px" y="0px"
	 viewBox="0 0 536.2 657" style="enable-background:new 0 0 536.2 657;" xml:space="preserve">
<style type="text/css">
	.st0{fill:#171945;}
	.st1{fill:#2BDFA0;}
	.st2{fill:#FFFFFF;}
	.st3{font-family:'MicrosoftYaHei';}
	.st4{font-size:11.5454px;}
	.st5{fill:#FF8160;}
	.st6{fill:#FFDA6D;}
	.st7{fill:#2A2D65;}
	.st8{fill:#01A9F7;}
	.st9{font-size:10.705px;}
</style>

<path class="st0" d="M536.2,87.8L501.3,0L281.6,0.4c0,0-59.3-4-102.6,38.7c-20.4,20.1-31.4,39.8-37.5,55.1
	c-5,12.5-7.2,26.5-6.5,40.5c1.4,29.2,3.3,105.2-11.1,140c-9.5,23.3-17.2,28.7-72.8,64.2c-16,10.3-49.5,32-49.5,55L0,451.2l29.8,56.3
	v129.8c0,10.8,6.9,19.7,15.3,19.7h365.8l32-31.5l2.7,1.1c1.3,0.6,2.7,0.2,3.7-0.9l54.9-55.6c1.5-1.4,1.9-4.1,1.1-6.2l-0.6-1.8
	l31.4-31L536.2,87.8L536.2,87.8z M522.8,515l-0.2,0.1l-28.2,28.7l0.9,3c1.5,5,0.2,10.7-3.2,13.8l-55.5,51.5
	c-2.4,2.2-5.6,2.9-8.4,1.4l-2.1-1L396,643.2H63.1c-8.1,0-22.6-11.2-22.6-22.1V503.9L11,449.1v-39.4c0-21.9,23.9-46,40.3-52.9
	c42.5-18,71-44,84.5-77.1c14.3-34.9,11.3-100.2,10.3-121.6c-0.6-14,1.8-37.8,6.4-49.4c0.3-1,0.8-1.9,1.1-2.9
	c5.4-13.9,12.9-33,31-50.9c40.9-40.4,95.3-38.4,95.8-38.4l212.3-0.4l0.1,0.3l30,80.8L522.8,515L522.8,515z"/>
<path class="st0" d="M280.4,17.5c-0.6,0-54.6-2-95.2,38.1c-18,17.8-25.1,36-30.8,50.6c-0.3,1-0.8,2-1.1,2.9
	c-4.5,11.4-6.9,34.9-6.3,48.8c0.9,21.5,4,87.1-10.4,122.3c-13.7,33.4-42.3,59.6-85,77.7c-16.2,6.8-39.8,30.5-39.8,51.9v39.1
	l29.6,54.8v117.6c0,10.3,14.1,21,21.7,21h332.6l30.2-30.9l2.6,1.2c2.6,1.2,5.4,0.7,7.6-1.3l55.4-51.4c3.1-2.9,4.3-8,2.9-12.5
	l-1.1-3.8l0.3-0.2l28.3-28.8V97.1L492.2,17L280.4,17.5z M361.8,458.9c0,0-1.5,13.8-5.9,19.9c-4.5,6.1-17.3,10.9-17.3,10.9h-27.9
	h-24.3h-25c0,0-12.6-3.2-18.3-10.2c-5.6-7.1-9.3-25.6-3.3-35.5l9.4-17c0,0,33.9-60.8,87.9-45c23.2,6.7,24.7,38.2,24.7,38.2
	L361.8,458.9L361.8,458.9z M344.1,331.7c0.2,4.8-2.8,8.8-6.6,8.8h-27.2c-4.1,0-7.2-4.8-6.5-9.9c0,0,5.8-21.8,7.4-32.8
	s2.1-35.4,2.1-35.4c0.6-4.1,3.3-7,6.5-7h15.8c3.5,0,6.4,3.6,6.6,8.2c0,0-0.7,25.9-0.9,32.6C340.9,302.9,344.1,331.7,344.1,331.7z
	 M366.3,112.5c-2.8,11.5-8.3,34.2-9.9,40.7c-2.1,8.6-7.3,36.7-7.3,36.7c-0.8,3.2-3,5.5-5.6,5.6l-24.9,1.3c-3.2,0.1-5.9-2.7-6.6-6.5
	c0,0-2.7-17.8-7.5-37.1c-4.6-19.3-11.9-39.1-11.9-39.1c-1.2-4,1.1-8.3,4.4-8.3h58.8h6.5C365.2,105.7,367.1,109.2,366.3,112.5z"/>
<g>
	<path class="st1" d="M291.3,84.3V16.6l-27.1,1.3c-3.9,0-11.1,1.5-15,2.6c-12.9,3.9-35.9,8-62.6,33.8l86.7,46.9
		C277,94.4,283.3,88.5,291.3,84.3z"/>
	<text transform="matrix(1 0 0 1 249.1543 62.3096)" class="st2 st3 st4">301</text>
	<text transform="matrix(1 0 0 1 249.1543 76.1641)" class="st2 st3 st4">星巴克</text>
</g>
<g>
	<path class="st1" d="M314.8,16.6v61c2.1-0.2,4.3-0.3,6.5-0.3c5.6,0,16.1,0.8,16.1,0.8V16.6H314.8z"/>
	<text transform="matrix(1 0 0 1 320.821 33.4319)" class="st2 st3 st4">303</text>
	<text transform="matrix(1 0 0 1 320.821 47.2864)" class="st2 st3 st4">星巴克</text>
</g>
<g>
	<path class="st1" d="M313.9,16.6h-21.5v67c6.3-3.1,13.6-5.2,21.5-6V16.6z"/>
	<text transform="matrix(1 0 0 1 291.7376 49.6616)" class="st2 st3 st4">302</text>
	<text transform="matrix(1 0 0 1 291.7376 63.5161)" class="st2 st3 st4">星巴克</text>
</g>
<g>
	<rect x="412.2" y="16.6" class="st5" width="64.4" height="70.6"/>
	<text transform="matrix(1 0 0 1 429.4219 48.4551)" class="st2 st3 st4">304</text>
	<text transform="matrix(1 0 0 1 429.4219 62.3096)" class="st2 st3 st4">星巴克</text>
</g>
<g>
	<path class="st5" d="M370.8,177.8h133.3l0,0v-75H403.7C385.6,139.5,370.8,177.8,370.8,177.8z"/>
	<text transform="matrix(1 0 0 1 418.6826 138.6001)" class="st2 st3 st4">305</text>
	<text transform="matrix(1 0 0 1 418.6826 152.4546)" class="st2 st3 st4">星巴克</text>
</g>
<g>
	<polygon class="st5" points="450.4,181.5 369.7,181.5 369.7,238.3 383.3,238.3 383.3,223.1 440.6,223.1 440.6,238.3 450.4,238.3
		"/>
	<text transform="matrix(1 0 0 1 396.1416 197.708)" class="st2 st3 st4">306</text>
	<text transform="matrix(1 0 0 1 396.1416 211.5625)" class="st2 st3 st4">星巴克</text>
</g>
<g>
	<polygon class="st6" points="365.6,263.1 365.6,293.8 438.6,293.8 438.6,298.6 482.4,298.6 482.4,293.8 482.4,284.9 482.4,263.1
		"/>
	<text transform="matrix(1 0 0 1 395.2822 274.5361)" class="st2 st3 st4">307</text>
	<text transform="matrix(1 0 0 1 395.2822 288.3906)" class="st2 st3 st4">星巴克</text>
</g>
<g>
	<polygon class="st6" points="439,302.4 439,310.7 387.9,310.7 383.6,310.7 374.4,310.7 374.4,297.2 365.2,297.2 365.2,346.3
		383.6,346.3 383.6,325 439,325 439,355.4 505.2,355.4 505.2,302.4 	"/>
	<text transform="matrix(1 0 0 1 457.1328 323.1934)" class="st2 st3 st4">308</text>
	<text transform="matrix(1 0 0 1 457.1328 337.0483)" class="st2 st3 st4">星巴克</text>
</g>
<g>
	<polygon class="st5" points="364.8,361.6 383.7,414.8 417.7,414.8 417.7,389 450.6,389 450.6,361.9 	"/>
	<text transform="matrix(1 0 0 1 389.6982 385.709)" class="st2 st3 st4">309</text>
	<text transform="matrix(1 0 0 1 389.6982 399.5625)" class="st2 st3 st4">星巴克</text>
</g>
<g>
	<polygon class="st7" points="383.7,417.4 408.2,417.4 408.2,427.5 417.7,427.5 417.7,474.2 383.7,474.2 	"/>
	<text transform="matrix(1 0 0 1 389.6982 441.3975)" class="st2 st3 st4">310</text>
	<text transform="matrix(1 0 0 1 389.6982 455.252)" class="st2 st3 st4">星巴克</text>
</g>
<g>
	<path class="st8" d="M383.7,479c0,0.8-0.1,15.9-12.1,28c-12,12-28.4,10.2-28.4,10.2V538h14.3v43.1h12.7v7.7h15v18.1h11.3v8.6h4.1
		l103.1-103.1v-33.3L383.7,479L383.7,479z"/>
	<text transform="matrix(1 0 0 1 387.9795 520.8398)" class="st2 st3 st4">311</text>
	<text transform="matrix(1 0 0 1 387.9795 534.6943)" class="st2 st3 st4">星巴克</text>
</g>
<g>
	<polygon class="st8" points="270.3,601.7 293,602 293,602 293.4,602 293.4,624.4 310.8,623.7 311.1,515.5 260.6,515.5 261,589.4
		268,589.8 269.6,589.8 269.6,589.9 270.3,589.9 	"/>
	<text transform="matrix(1 0 0 1 270.7246 563.1343)" class="st2 st3 st4">312</text>
	<text transform="matrix(1 0 0 1 270.7246 576.9888)" class="st2 st3 st4">星巴克</text>
</g>
<g>
	<rect x="218.6" y="515.5" class="st1" width="41.2" height="74.2"/>
	<text transform="matrix(1 0 0 1 228.9404 534.694)" class="st2 st3 st4">313</text>
	<text transform="matrix(1 0 0 1 228.9404 548.5485)" class="st2 st3 st4">星巴克</text>
</g>
<g>
	<path class="st6" d="M280,147.8h-19.1v47.9h29.7C288.2,178.6,284.6,162.5,280,147.8z"/>
	<text transform="matrix(1 0 0 1 266.8974 174.5953)" class="st2 st3 st4">324</text>
	<text transform="matrix(1 0 0 1 266.8974 188.4498)" class="st2 st3 st4">星巴克</text>
</g>
<g>
	<path class="st6" d="M290.9,197.8h-30v10.5h-16.5v33.2H294C293.8,226.4,292.8,211.7,290.9,197.8z"/>
	<text transform="matrix(1 0 0 1 256.9243 221.5953)" class="st2 st3 st4">323</text>
	<text transform="matrix(1 0 0 1 256.9243 235.4498)" class="st2 st3 st4">星巴克</text>
</g>
<g>
	<path class="st6" d="M244.4,284.7h47.7c0.9-9.6,1.6-19.3,1.9-29.4c0.1-4,0.1-7.9,0.1-11.8h-49.6v41.2H244.4z"/>
	<text transform="matrix(1 0 0 1 256.9243 264.6314)" class="st2 st3 st4">322</text>
	<text transform="matrix(1 0 0 1 256.9243 278.4859)" class="st2 st3 st4">星巴克</text>
</g>
<g>
	<path class="st7" d="M244.3,332h40.2c3.5-14,6.2-28.9,7.9-44.6h-48L244.3,332L244.3,332z"/>
	<text transform="matrix(1 0 0 1 255.6914 310.1019)" class="st2 st3 st4">321</text>
	<text transform="matrix(1 0 0 1 255.6914 323.9564)" class="st2 st3 st4">星巴克</text>
</g>
<g>
	<path class="st1" d="M226.4,379.3H260c5.1-8.9,9.6-19,13.7-29.9h-47.2v29.9H226.4z"/>
	<text transform="matrix(1 0 0 1 234.6465 361.5977)" class="st2 st3 st4">320</text>
	<text transform="matrix(1 0 0 1 234.6465 375.4531)" class="st2 st3 st4">星巴克</text>
</g>
<g>
	<path class="st5" d="M124.7,396.5c-17.3-15.3-38.1-29.6-61.8-40.2v117.9h44.2V417L124.7,396.5z"/>
	<text transform="matrix(1 0 0 1 64.5596 419.2588)" class="st2 st3 st4">317</text>
	<text transform="matrix(1 0 0 1 64.5596 433.1133)" class="st2 st3 st4">星巴克</text>
</g>
<g>
	<path class="st5" d="M126.2,397.9l-17.1,19.8v19h52.5C152.4,424.2,140.5,410.7,126.2,397.9z"/>
	<text transform="matrix(1 0 0 1 120.5596 416.7588)" class="st2 st3 st4">316</text>
	<text transform="matrix(1 0 0 1 120.5596 430.6133)" class="st2 st3 st4">星巴克</text>
</g>
<g>
	<path class="st5" d="M182.2,472.6c-0.8-2.2-1.8-4.6-3-7.2l-24.4,12.1h-36v10.1H59.9v137h68.7v-58.4h68.5V528
		c0-8.3,2.2-16.2,6.4-22.6C203.5,505.2,191.6,499.6,182.2,472.6z"/>
	<text transform="matrix(1 0 0 1 100.6191 520.7588)" class="st2 st3 st4">314</text>
	<text transform="matrix(1 0 0 1 100.6191 534.6133)" class="st2 st3 st4">星巴克</text>
</g>
<g>
	<path class="st5" d="M10.7,411.5v38.7l13.1,24.1h37.1V355.8C45.8,356.5,10.7,385,10.7,411.5z"/>
	<text transform="matrix(1 0 0 1 20.3022 418.6061)" class="st2 st3 st4">318</text>
	<text transform="matrix(1 0 0 1 20.3022 432.4606)" class="st2 st3 st4">星巴克</text>
</g>
<g>
	<path class="st1" d="M185.2,55.8c-2.7,2.6-5.4,5.4-8.1,8.5c-42,46.4-26,113-31.6,175.4h53.4l-0.2-92.3H231v-21.6h38.8
		c0,0,0.2-7.3,0.2-11.3s0.9-7.9,2.5-11.6L185.2,55.8z"/>
	<text transform="matrix(1 0 0 1 161.1543 139.1616)" class="st2 st3 st4">325</text>
	<text transform="matrix(1 0 0 1 161.1543 153.0161)" class="st2 st3 st4">星巴克</text>
</g>
<g>
	<path class="st1" d="M144.7,247.7c-1.8,15.2-6.1,28.4-11.4,39.7H230V258h-31.2v-16.2h-53.6C145.1,243.7,144.9,245.7,144.7,247.7z"
		/>
	<text transform="matrix(1 0 0 1 161.1543 266.1616)" class="st2 st3 st4">326</text>
	<text transform="matrix(1 0 0 1 161.1543 280.0161)" class="st2 st3 st4">星巴克</text>
</g>
<g>
	<path class="st1" d="M95.9,333h45.5l0,0H230v-43.6h-97.7C121.8,310.9,104.4,325.9,95.9,333z"/>
	<text transform="matrix(1 0 0 1 161.1543 310.1616)" class="st2 st3 st4">327</text>
	<text transform="matrix(1 0 0 1 161.1543 324.0161)" class="st2 st3 st4">星巴克</text>
</g>
<g>
	<path class="st1" d="M86.7,339.4c0,0,23.5,10.9,30.7,16.3s24.1,18.3,24.1,18.3v-38h-50C88.5,338.3,86.7,339.4,86.7,339.4z"/>
	<text transform="matrix(1 0 0 1 114.1543 346.2108)" class="st2 st3 st4">319</text>
	<text transform="matrix(1 0 0 1 114.1543 360.0653)" class="st2 st3 st4">星巴克</text>
</g>
<g>
	<polygon class="st7" points="98,348 212.8,428.3 203,442.8 88,362.3 	"/>
	<text transform="matrix(1 0 0 1 153.5736 404.5258)" class="st2 st3 st4">附333</text>
	<text transform="matrix(1 0 0 1 153.5736 418.3804)" class="st2 st3 st4">星巴克</text>
</g>
<g>
	<rect x="306.9" y="361.7" class="st7" width="30" height="15.6"/>
	<text transform="matrix(1 0 0 1 305.571 373.4534)" class="st2 st3 st4">附331</text>
	<text transform="matrix(1.0022 0 0 1 338.3213 373.4534)" class="st2 st3 st9">店铺名称</text>
</g>
<g>
	<rect x="306.9" y="344.8" class="st7" width="30" height="15.6"/>
	<text transform="matrix(1 0 0 1 305.571 356.2867)" class="st2 st3 st4">附330</text>
	<text transform="matrix(1.0022 0 0 1 338.3213 356.2864)" class="st2 st3 st9">店铺名称</text>
</g>
<g>
	<rect x="312.4" y="236.3" class="st7" width="30" height="15.6"/>
	<text transform="matrix(1 0 0 1 311.0715 249.4117)" class="st2 st3 st4">附329</text>
	<text transform="matrix(1.0022 0 0 1 311.0713 261.9002)" class="st2 st3 st9">店铺名称</text>
</g>
<g>
	<rect x="312.4" y="199.8" class="st7" width="30" height="15.6"/>
	<text transform="matrix(1 0 0 1 311.0715 212.4534)" class="st2 st3 st4">附328</text>
	<text transform="matrix(1.0022 0 0 1 311.0713 224.9417)" class="st2 st3 st9">店铺名称</text>
</g>
<g>
	<rect x="196.5" y="389.8" class="st7" width="60.4" height="18.3"/>
	<text transform="matrix(1 0 0 1 209.5114 402.8977)" class="st2 st3 st4">附332</text>
	<text transform="matrix(1.0022 0 0 1 244.4116 402.8977)" class="st2 st3 st9">店铺名称</text>
</g>
<g>
	<path class="st5" d="M163.1,438.7h-54v35.6h9.7v1.2h35.5l24.1-11.9C174.8,456.4,169.7,447.8,163.1,438.7z"/>
	<text transform="matrix(1 0 0 1 120.5596 452.7588)" class="st2 st3 st4">315</text>
  <text transform="matrix(1 0 0 1 120.5596 466.6133)" class="st2 st3 st4">星巴克</text>
</g>
</svg>
