<?xml version="1.0" encoding="utf-8"?>
<!-- Generator: Adobe Illustrator 22.1.0, SVG Export Plug-In . SVG Version: 6.00 Build 0)  -->
<svg version="1.1" id="图层_1" xmlns="http://www.w3.org/2000/svg" xmlns:xlink="http://www.w3.org/1999/xlink" x="0px" y="0px"
	 viewBox="0 0 750.9 924.6" style="enable-background:new 0 0 750.9 924.6;" xml:space="preserve">
<style type="text/css">
	.st0{fill:#171945;}
	.st1{fill:#2BDFA0;}
	.st2{fill:#FFFFFF;}
	.st3{font-family:'MicrosoftYaHei';}
	.st4{font-size:15.9436px;}
	.st5{font-size:15.3275px;}
	.st6{fill:#FFDA6D;}
	.st7{fill:#01A9F7;}
	.st8{fill:#FF8160;}
	.st9{fill:#2A2D65;}
</style>
	<g>
		<path class="st0" d="M392.7,24.6c-0.8,0-76.5-2.7-133.3,53.7c-25.3,25-35.2,50.7-43.1,71.3c-0.6,1.4-1.1,2.7-1.5,4.1
			c-6.3,16-9.7,49.1-8.7,68.7c1.4,30.4,5.5,122.5-14.5,172.1c-19.2,46.8-59.3,83.6-119.1,109.1c-22.7,9.6-55.6,42.9-55.6,73.1v55.1
			l41.3,77v165.4c0,14.3,19.7,29.6,30.3,29.6h465.9l42.3-43.5l3.5,1.7c3.5,1.7,7.6,0.9,10.7-1.8l77.7-72.2c4.3-4,6-11.3,4.1-17.5
			l-1.5-5.2l39.9-40.9V136.7L689.4,23.8L392.7,24.6z M506.7,645.8c0,0-2.1,19.5-8.3,28.1c-6.1,8.5-24.2,15.4-24.2,15.4H435h-34h-35
			c0,0-17.7-4.4-25.6-14.3c-7.9-9.9-13-36.2-4.5-49.9l13.2-24c0,0,47.6-85.4,123.1-63.3c32.5,9.5,34.6,53.7,34.6,53.7L506.7,645.8
			L506.7,645.8z M481.9,466.7c0.2,6.7-4,12.4-9.2,12.4h-38.3c-5.8,0-10.2-6.7-9.1-14c0,0,8-30.7,10.3-46.1
			c2.2-15.4,3.1-49.7,3.1-49.7c0.8-5.6,4.6-9.8,9.1-9.8h22.1c5,0,9.1,5,9.2,11.4c0,0-0.9,36.3-1.4,45.9S481.9,466.7,481.9,466.7z
			 M513,158.4c-3.9,16.2-11.7,48.2-13.8,57.2c-3,12.2-10.2,51.6-10.2,51.6c-1.1,4.6-4.1,7.8-7.9,7.9l-34.8,1.8
			c-4.4,0.3-8.3-3.7-9.2-9.2c0,0-3.9-25-10.4-52.2s-16.5-55.1-16.5-55.1c-1.7-5.6,1.5-11.6,6.1-11.6h82.3h9.1
			C511.5,148.8,514.2,153.6,513,158.4z"/>
		<path class="st0" d="M750.9,123.6L702.1,0L394.3,0.8c0,0-83-5.6-143.7,54.5c-28.5,28.2-44,56-52.4,77.5c-7,17.5-10,37.2-9.1,57.1
			c1.9,41,4.5,148-15.5,197c-13.3,32.8-24.1,40.4-101.9,90.3c-22.6,14.3-69.4,45-69.4,77.4L0,635l41.7,79.2v182.6
			c0,15.3,9.6,27.8,21.5,27.8h512.2l44.9-44.2l3.9,1.7c1.8,0.8,3.7,0.3,5.2-1.2l76.9-78.3c2-2.1,2.7-5.6,1.7-8.7l-0.8-2.4l43.9-43.8
			V123.6H750.9z M732.1,724.7l-0.2,0.2l-39.6,40.4l1.3,4.3c2.1,7,0.2,15-4.5,19.4l-77.6,72.3c-3.4,3.2-7.8,4-11.8,2.1l-3-1.4
			l-42.1,43.3H88.4c-11.3,0-31.5-15.7-31.5-31.1V709.1l-41.3-77v-55.5c0-30.8,33.4-64.7,56.4-74.5c59.6-25.3,99.4-61.9,118.3-108.5
			c20-49.1,15.8-141,14.4-171.2c-0.9-19.8,2.6-53.1,9-69.4c0.5-1.4,1.1-2.7,1.5-4.1c7.6-19.5,17.9-46.4,43.4-71.7
			c57.1-56.9,133.2-54.3,134-54.2L690,22.4l0.1,0.5L732,136.6L732.1,724.7L732.1,724.7z"/>
	</g>
	<g>
		<path class="st1" d="M473.6,26c-9.4,0.8-19.8,2.4-30.9,4.8v79h30.9V26z"/>
		<text transform="matrix(1 0 0 1 447.0173 53.2811)" class="st2 st3 st4">402</text>
		<text transform="matrix(1 0 0 1 447.0173 68.4134)" class="st2 st3 st4">星巴克</text>
	</g>
	<g>
		<path class="st1" d="M410.7,39.8v77.7c8.9-5.1,18.6-7.7,28-7.7h2.1V31.3C431.1,33.5,421.1,36.3,410.7,39.8z"/>
		<text transform="matrix(1 0 0 1 413.0173 73.3363)" class="st2 st3 st4">401</text>
		<text transform="matrix(1 0 0 1 413.0173 88.4685)" class="st2 st3 st4">星巴克</text>
	</g>
	<g>
		<path class="st1" d="M408.7,40.5c-34.6,11.9-71.8,31.2-103.5,59.4l80.4,44.6c5.5-11.6,14.1-20.4,23.8-26.3h-0.8V40.5H408.7z"/>
		<text transform="matrix(1 0 0 1 348.2261 94.5859)" class="st2 st3 st5">417</text>
		<text transform="matrix(1 0 0 1 347.6839 111.2467)" class="st2 st3 st4">星巴克</text>
	</g>
	<g>
		<polygon class="st6" points="667.9,26 542.4,26 542.4,109.7 573,109.7 573,124.6 667.9,124.6 		"/>
		<text transform="matrix(1 0 0 1 580.4102 61.9233)" class="st2 st3 st4">403</text>
		<text transform="matrix(1 0 0 1 580.4102 81.0552)" class="st2 st3 st4">星巴克</text>
	</g>
	<g>
		<path class="st1" d="M264.3,147l78.3,1.5v29.3H379v-2.6c0-10.9,2.1-20.5,5.8-28.8l-81.2-45C289.1,114.6,275.7,129.7,264.3,147z"/>
		<text transform="matrix(1 0 0 1 293.6839 129.4478)" class="st2 st3 st4">416</text>
		<text transform="matrix(1 0 0 1 293.6839 145.5801)" class="st2 st3 st4">星巴克</text>
	</g>
	<g>
		<path class="st1" d="M519.5,249.2h186.8l0,0V145.6H564.8C525.9,218.8,519.5,249.2,519.5,249.2z"/>
		<text transform="matrix(1 0 0 1 589.5449 195.6909)" class="st2 st3 st4">404</text>
		<text transform="matrix(1 0 0 1 589.5449 214.8237)" class="st2 st3 st4">星巴克</text>
	</g>
	<g>
		<polygon class="st7" points="631.9,257.4 521.1,257.4 521.1,335.8 539.7,335.8 539.7,314.7 618.5,314.7 618.5,335.8 631.9,335.8
					"/>
		<text transform="matrix(1 0 0 1 557.917 283.2793)" class="st2 st3 st4">405</text>
		<text transform="matrix(1 0 0 1 557.917 302.4115)" class="st2 st3 st4">星巴克</text>
	</g>
	<g>
		<polygon class="st8" points="514.8,371.5 514.8,413.9 617.5,413.9 617.5,420.6 674.2,420.6 674.2,413.9 674.2,401.7 674.2,371.5
					"/>
		<text transform="matrix(1 0 0 1 557.917 389.061)" class="st2 st3 st4">406</text>
		<text transform="matrix(1 0 0 1 557.917 408.1934)" class="st2 st3 st4">星巴克</text>
	</g>
	<g>
		<polygon class="st7" points="615.7,423.7 615.7,435.2 541.9,435.2 536,435.2 523.4,435.2 523.4,416.6 511.8,416.6 511.8,484.3
			536,484.3 536,458.1 615.7,458.1 615.7,481.4 706.6,481.4 706.6,423.7 		"/>
		<text transform="matrix(1 0 0 1 632.8354 451.1235)" class="st2 st3 st4">407</text>
		<text transform="matrix(1 0 0 1 632.8354 470.2568)" class="st2 st3 st4">星巴克</text>
	</g>
	<g>
		<rect x="537.1" y="584.5" class="st8" width="31.9" height="79.8"/>
		<text transform="matrix(1 0 0 1 543.499 619.0103)" class="st2 st3 st4">附421</text>
		<text transform="matrix(1 0 0 1 543.499 638.1426)" class="st2 st3 st4">星巴克</text>
	</g>
	<g>
		<rect x="438.1" y="281.5" class="st8" width="47.9" height="24.8"/>
		<text transform="matrix(1 0 0 1 444.6202 290.5103)" class="st2 st3 st4">附418</text>
		<text transform="matrix(1 0 0 1 444.6202 309.6426)" class="st2 st3 st4">星巴克</text>
	</g>
	<g>
		<rect x="438.1" y="334.5" class="st8" width="47.9" height="24.8"/>
		<text transform="matrix(1 0 0 1 444.6202 343.5103)" class="st2 st3 st4">附419</text>
		<text transform="matrix(1 0 0 1 444.6202 362.6426)" class="st2 st3 st4">星巴克</text>
	</g>
	<g>
		<rect x="427.6" y="485" class="st8" width="47.9" height="24.8"/>
		<text transform="matrix(1 0 0 1 434.1202 494.0103)" class="st2 st3 st4">附420</text>
		<text transform="matrix(1 0 0 1 434.1202 513.1426)" class="st2 st3 st4">星巴克</text>
	</g>
	<g>
		<path class="st1" d="M188.3,404.3c-11.8,26.4-28.7,48.4-48.9,63.9v42.7h59.2v-42.1h198.6c5.9-18,11.1-40.7,14.4-64.5H188.3z"/>
		<text transform="matrix(1 0 0 1 243.4355 433.4824)" class="st2 st3 st4">412</text>
		<text transform="matrix(1 0 0 1 244.437 456.6226)" class="st2 st3 st4">星巴克</text>
	</g>
	<g>
		<path class="st8" d="M415.2,341.7H236.6v60h175.6c1.1-8.7,2-17.5,2.5-26.9C415.3,363.7,415.5,352.7,415.2,341.7z"/>
		<text transform="matrix(1 0 0 1 286.9399 369.311)" class="st2 st3 st4">413</text>
		<text transform="matrix(1 0 0 1 286.9399 388.4443)" class="st2 st3 st4">星巴克</text>
	</g>
	<g>
		<path class="st6" d="M278.9,278.7v-67h-30v67h-12.3v58.7h178.5c-0.7-20.3-2.7-40.3-5.5-58.7H278.9z"/>
		<text transform="matrix(1 0 0 1 286.9399 306.2485)" class="st2 st3 st4">414</text>
		<text transform="matrix(1 0 0 1 286.9399 325.3818)" class="st2 st3 st4">星巴克</text>
	</g>
	<g>
		<path class="st7" d="M349.3,216.2v57.4H410c-3.4-21.7-7.8-41.2-12.3-57.4L349.3,216.2L349.3,216.2z"/>
		<text transform="matrix(1 0 0 1 360.7295 242.1851)" class="st2 st3 st4">415</text>
		<text transform="matrix(1 0 0 1 360.7295 261.3179)" class="st2 st3 st4">星巴克</text>
	</g>
	<g>
		<path class="st9" d="M388.4,491.3v-2h-66.9v71.6h17.1c12-12.5,23-23.2,28.7-30.5C373.2,522.4,380.9,509.3,388.4,491.3z"/>
		<text transform="matrix(1 0 0 1 332.9663 517.2578)" class="st2 st3 st4">411</text>
		<text transform="matrix(1 0 0 1 332.9663 536.3896)" class="st2 st3 st4">星巴克</text>
	</g>
	<g>
		<path class="st9" d="M336.7,563.9h-55v62.7h13.1C301,604.4,319.4,582.2,336.7,563.9z"/>
		<text transform="matrix(1 0 0 1 288.3159 586.2021)" class="st2 st3 st4">410</text>
		<text transform="matrix(1 0 0 1 288.3159 605.3345)" class="st2 st3 st4">星巴克</text>
	</g>
	<g>
		<path class="st8" d="M292.7,643.9c0.2-2.9,0.7-10.5,1.4-13.4h-12.5V727h77.5C319.4,711.9,289,682.2,292.7,643.9z"/>
		<text transform="matrix(1 0 0 1 285.9546 685.8799)" class="st2 st3 st4">409</text>
		<text transform="matrix(1 0 0 1 285.9546 705.0146)" class="st2 st3 st4">星巴克</text>
	</g>
	<g>
		<path class="st6" d="M731.4,672.4h-26.2v56H483.5V876h27.6v27h38.3c3.9,0,7.7-1.7,10.7-4.7l37.3-37.5c4,4.4,10,5,14.5,0.8
			l76.9-71.7c5.2-4.8,6.4-14.3,2.6-20.9l0,0c-0.4-0.6-0.7-1.1-1.1-1.5l35.3-35.4c4.4-4.4,6.7-11,6.6-18.1L731.4,672.4z"/>
		<text transform="matrix(1 0 0 1 514.8 786.1182)" class="st2 st3 st4">408</text>
		<text transform="matrix(1 0 0 1 514.8 805.251)" class="st2 st3 st4">海南中视IMAX影院</text>
	</g>
	<g>
		<rect x="89.7" y="536.4" class="st6" width="155" height="188.5"/>
		<text transform="matrix(1 0 0 1 99.9941 618.6548)" class="st2 st3 st4">408</text>
		<text transform="matrix(1 0 0 1 99.9941 637.7881)" class="st2 st3 st4">海南中视IMAX影院</text>
	</g>
	<g>
		<rect x="89.7" y="764.6" class="st6" width="384.7" height="110.2"/>
	<text transform="matrix(1 0 0 1 268.0254 813.7874)" class="st2 st3 st4">408</text>
		<text transform="matrix(1 0 0 1 213.3362 836.4541)" class="st2 st3 st4">海南中视IMAX影院</text>
	</g>
</svg>
