<?xml version="1.0" encoding="utf-8"?>
<!-- Generator: Adobe Illustrator 22.1.0, SVG Export Plug-In . SVG Version: 6.00 Build 0)  -->
<svg version="1.1" id="图层_1" xmlns="http://www.w3.org/2000/svg" xmlns:xlink="http://www.w3.org/1999/xlink" x="0px" y="0px"
	 viewBox="0 0 902.6 843.5" style="enable-background:new 0 0 902.6 843.5;" xml:space="preserve">
<style type="text/css">
	.st0{fill:#161E42;}
	.st1{fill:#2E9DD9;}
	.st2{fill:#FFFFFF;}
	.st3{font-family:'MicrosoftYaHei';}
	.st4{font-size:14px;}
	.st5{font-size:10.7798px;}
</style>
<path class="st0" d="M452.3,83.2L0,81.1v762.3l841.5,0.1l37-30.4V515.8h24.1V111.3h-24.1h-71.4l-27.6,0.2H667.4V28.3h-124V0h-91.1
		L452.3,83.2L452.3,83.2z M534,23.8v28.3h123.9v83.2H767l52.9-0.2h34.9h27.3V492H858l-3.2,297.3l-37,30.4l-795.5-0.1V104.9
		l447.6,2.1V23.8H534L534,23.8z"/>
<polygon class="st0" points="25.3,108 25.3,816.4 814.5,816.6 851.5,786.1 851.5,488.8 875.6,488.8 875.6,138.2 851.5,138.2
	819.9,138.2 766.9,138.4 654.6,138.4 654.6,55.2 530.7,55.2 530.7,27 474.5,27 474.5,110.1 	"/>
	<g>
		<polygon class="st1" points="474.5,152.2 347.1,152.2 347.1,341.9 347.1,426.6 347.1,647.9 452.2,647.9 452.2,539.6 514,539.6
			514,426.6 514,341.9 514,284.2 527.6,284.2 527.6,27 474.5,27 		"/>
		<text transform="matrix(1 0 0 1 420.5094 414.7212)" class="st2 st3 st4">16-1</text>
		<text transform="matrix(1 0 0 1 420.5094 430.7932)" class="st2 st3 st5">店铺名称</text>
	</g>
	<g>
		<polygon class="st1" points="518.2,460.1 518.2,543.8 456.1,543.8 456.1,648.1 687.4,648.1 687.4,595.8 747.9,595.8 747.9,317.5
			530.7,317.5 530.7,460.1 		"/>
		<text transform="matrix(1 0 0 1 636.026 414.7209)" class="st2 st3 st4">16-2</text>
		<text transform="matrix(1 0 0 1 636.026 430.793)" class="st2 st3 st5">店铺名称</text>
	</g>
	<g>
		<polygon class="st1" points="530.7,55.2 530.7,138.4 530.7,146.1 530.7,202.6 530.7,211.3 530.7,312.7 751,312.7 751,317.5
			751,317.5 751,596.3 851.6,596.3 851.6,488.3 875.6,488.3 875.6,138.2 819.9,138.2 766.9,138.4 654.6,138.4 654.6,55.2 		"/>
		<text transform="matrix(1 0 0 1 790.1385 414.7214)" class="st2 st3 st4">16-3</text>
		<text transform="matrix(1 0 0 1 790.1385 430.7935)" class="st2 st3 st5">店铺名称</text>
	</g>
	<g>
		<polygon class="st1" points="691.4,599.4 691.4,727.5 718.9,727.5 821.9,666.3 821.9,644.6 845.4,644.6 845.4,599.4 		"/>
		<text transform="matrix(1 0 0 1 726.5421 667.7468)" class="st2 st3 st4">16-24</text>
		<text transform="matrix(1 0 0 1 726.5421 682.113)" class="st2 st3 st5">店铺名称</text>
	</g>
	<g>
		<rect x="657.6" y="657.6" class="st1" width="29" height="25.4"/>
		<text transform="matrix(0.7071 -0.7071 0.7071 0.7071 664.3523 681.0154)" class="st2 st3 st4">16-23</text>
		<text transform="matrix(0.7071 -0.7071 0.7071 0.7071 692.5691 653.3489)" class="st2 st3 st5">店铺名称</text>
	</g>
	<g>
		<rect x="628" y="657.6" class="st1" width="29" height="25.4"/>
		<text transform="matrix(0.7071 -0.7071 0.7071 0.7071 634.8503 681.0164)" class="st2 st3 st4">16-22</text>
		<text transform="matrix(0.7071 -0.7071 0.7071 0.7071 663.0671 653.3499)" class="st2 st3 st5">店铺名称</text>
	</g>
	<g>
		<rect x="598.4" y="657.6" class="st1" width="29" height="25.4"/>
		<text transform="matrix(0.7071 -0.7071 0.7071 0.7071 605.3489 681.0164)" class="st2 st3 st4">16-21</text>
		<text transform="matrix(0.7071 -0.7071 0.7071 0.7071 633.5652 653.3499)" class="st2 st3 st5">店铺名称</text>
	</g>
	<g>
		<rect x="568.9" y="657.6" class="st1" width="29" height="25.4"/>
		<text transform="matrix(0.7071 -0.7071 0.7071 0.7071 575.8469 681.0164)" class="st2 st3 st4">16-20</text>
		<text transform="matrix(0.7071 -0.7071 0.7071 0.7071 604.0637 653.3499)" class="st2 st3 st5">店铺名称</text>
	</g>
	<g>
		<rect x="460" y="696.4" class="st1" width="76.9" height="23.1"/>
		<text transform="matrix(1 0 0 1 475.0155 704.9417)" class="st2 st3 st4">16-18</text>
		<text transform="matrix(1 0 0 1 475.0155 717.7468)" class="st2 st3 st5">店铺名称</text>
	</g>
	<g>
		<rect x="403.2" y="692.4" class="st1" width="35.4" height="54.3"/>
		<text transform="matrix(1 0 0 1 403.4929 721.1177)" class="st2 st3 st4">16-17</text>
		<text transform="matrix(1 0 0 1 403.4929 733.9229)" class="st2 st3 st5">店铺名称</text>
	</g>
	<g>
		<polygon class="st1" points="344.7,724.6 344.7,742.3 398.7,742.3 398.7,695.4 354.7,695.4 354.7,724.6 		"/>
		<text transform="matrix(1 0 0 1 344.7002 735.8972)" class="st2 st3 st4">16-16</text>
		<text transform="matrix(1 0 0 1 344.7002 748.7024)" class="st2 st3 st5">店铺名称</text>
	</g>
	<g>
		<rect x="286.8" y="643.6" class="st1" width="57" height="26.7"/>
		<text transform="matrix(1 0 0 1 291.17 655.9497)" class="st2 st3 st4">16-15</text>
		<text transform="matrix(1 0 0 1 291.17 668.4497)" class="st2 st3 st5">店铺名称</text>
	</g>
	<g>
		<rect x="269.7" y="697.5" class="st1" width="12.7" height="25.8"/>
		<text transform="matrix(1 0 0 1 264.6113 722.3)" class="st2 st3 st4">16-14</text>
		<text transform="matrix(1 0 0 1 304.8932 722.3)" class="st2 st3 st5">店铺名称</text>
	</g>
	<g>
		<rect x="253.4" y="697.5" class="st1" width="12.7" height="25.8"/>
		<text transform="matrix(1 0 0 1 239.6089 707.9417)" class="st2 st3 st4">16-13</text>
		<text transform="matrix(1 0 0 1 279.8907 707.9421)" class="st2 st3 st5">店铺名称</text>
	</g>
	<g>
		<rect x="286.8" y="595.8" class="st1" width="57" height="37"/>
		<text transform="matrix(1 0 0 1 311.2994 618.2966)" class="st2 st3 st4">8</text>
		<text transform="matrix(1 0 0 1 321.7994 618.2966)" class="st2 st3 st5">店铺名称</text>
	</g>
	<g>
		<rect x="286.8" y="558.6" class="st1" width="57" height="36.2"/>
		<text transform="matrix(1 0 0 1 311.2994 580.6599)" class="st2 st3 st4">9</text>
		<text transform="matrix(1 0 0 1 323.5494 580.6599)" class="st2 st3 st5">店铺名称</text>
	</g>
	<g>
		<rect x="286.8" y="521.5" class="st1" width="57" height="36.2"/>
		<text transform="matrix(1 0 0 1 307.1943 545.0032)" class="st2 st3 st4">10</text>
		<text transform="matrix(1 0 0 1 325.1943 545.0032)" class="st2 st3 st5">店铺名称</text>
	</g>
	<g>
		<rect x="286.8" y="484.3" class="st1" width="57" height="36.2"/>
		<text transform="matrix(1 0 0 1 307.1945 509.1028)" class="st2 st3 st4">11</text>
		<text transform="matrix(1 0 0 1 325.1945 509.1028)" class="st2 st3 st5">店铺名称</text>
	</g>
	<g>
		<rect x="286.8" y="448" class="st1" width="57" height="35.5"/>
		<text transform="matrix(1 0 0 1 307.1945 473.7708)" class="st2 st3 st4">12</text>
		<text transform="matrix(1 0 0 1 325.1945 473.7708)" class="st2 st3 st5">店铺名称</text>
	</g>
	<g>
		<rect x="286.8" y="411.5" class="st1" width="57" height="35.5"/>
		<text transform="matrix(1 0 0 1 307.1945 437.3235)" class="st2 st3 st4">13</text>
		<text transform="matrix(1 0 0 1 325.1945 437.3235)" class="st2 st3 st5">店铺名称</text>
	</g>
	<g>
		<rect x="286.8" y="375" class="st1" width="57" height="35.5"/>
		<text transform="matrix(1 0 0 1 307.1945 404.7434)" class="st2 st3 st4">14</text>
		<text transform="matrix(1 0 0 1 325.1945 404.7434)" class="st2 st3 st5">店铺名称</text>
	</g>
	<g>
		<polygon class="st1" points="286.8,334.4 286.8,374 343.9,374 343.9,309.8 317.1,309.8 317.1,334.4 		"/>
		<text transform="matrix(1 0 0 1 311.4445 361.5742)" class="st2 st3 st4">15</text>
		<text transform="matrix(1 0 0 1 329.4445 361.5742)" class="st2 st3 st5">店铺名称</text>
	</g>
	<g>
		<rect x="212.3" y="648.2" class="st1" width="39.6" height="48.2"/>
		<text transform="matrix(1 0 0 1 227.3218 671.5276)" class="st2 st3 st4">5</text>
		<text transform="matrix(1 0 0 1 218.3218 685.8608)" class="st2 st3 st5">店铺名称</text>
	</g>
	<g>
		<rect x="204.3" y="595.4" class="st1" width="42.6" height="51.1"/>
		<text transform="matrix(1 0 0 1 221.5333 620.2234)" class="st2 st3 st4">4</text>
		<text transform="matrix(1 0 0 1 212.5333 634.5566)" class="st2 st3 st5">店铺名称</text>
	</g>
	<g>
		<rect x="204.3" y="541.4" class="st1" width="42.6" height="52.1"/>
		<text transform="matrix(1 0 0 1 221.5338 566.7397)" class="st2 st3 st4">3</text>
		<text transform="matrix(1 0 0 1 212.5338 581.073)" class="st2 st3 st5">店铺名称</text>
	</g>
	<g>
		<rect x="224.3" y="484.8" class="st1" width="22.6" height="43.4"/>
		<text transform="matrix(1 0 0 1 216.1934 503.0686)" class="st2 st3 st4">16-02</text>
		<text transform="matrix(1 0 0 1 216.1934 518.4019)" class="st2 st3 st5">店铺名称</text>
	</g>
	<g>
		<polygon class="st1" points="203.4,475.2 224.3,475.2 224.3,483.5 246.9,483.5 246.9,428.9 203.4,428.9 		"/>
		<text transform="matrix(1 0 0 1 203.6307 452.8049)" class="st2 st3 st4">16-01 </text>
		<text transform="matrix(1 0 0 1 203.5907 468.1382)" class="st2 st3 st5">店铺名称</text>
	</g>
	<g>
		<rect x="228.7" y="258.1" class="st1" width="27.6" height="55.6"/>
		<text transform="matrix(1 0 0 1 223.8019 284.1667)" class="st2 st3 st4">16-07</text>
		<text transform="matrix(1 0 0 1 223.8019 297.5)" class="st2 st3 st5">店铺名称 </text>
	</g>
	<g>
		<rect x="233.3" y="154" class="st1" width="52.1" height="25.5"/>
		<text transform="matrix(1 0 0 1 236.0676 169.9507)" class="st2 st3 st4">16-06</text>
		<text transform="matrix(1 0 0 1 279.0676 168.5232)" class="st2 st3 st5">店铺名称</text>
	</g>
	<g>
		<rect x="59" y="146.2" class="st1" width="72.6" height="49.7"/>
		<text transform="matrix(1 0 0 1 74.4017 171.5498)" class="st2 st3 st4">16-31</text>
		<text transform="matrix(1 0 0 1 74.4017 184.0498)" class="st2 st3 st5">店铺名称</text>
	</g>
	<g>
		<rect x="203.1" y="177.8" class="st1" width="25.2" height="19.7"/>
		<text transform="matrix(1 0 0 1 201.2754 201.8613)" class="st2 st3 st4">16-05</text>
		<text transform="matrix(1 0 0 1 239.6088 200.0281)" class="st2 st3 st5">店铺名称</text>
	</g>
	<g>
    <rect x="176.3" y="177.8" class="st1" width="25.2" height="19.7"/>
		<text transform="matrix(1 0 0 1 165.5145 186.2456)" class="st2 st3 st4">16-04</text>
		<text transform="matrix(1 0 0 1 205.1811 185.2761)" class="st2 st3 st5">店铺名称</text>
	</g>
	<g>
		<rect x="257.8" y="400.5" class="st1" width="16" height="21.1"/>
		<text transform="matrix(1 6.740512e-03 -6.740512e-03 1 285.8 418.2376)" class="st2 st3 st5">店铺名称</text>
		<text transform="matrix(1 6.740512e-03 -6.740512e-03 1 252.6332 418.2376)" class="st2 st3 st4">6-12 </text>
	</g>
	<g>
		<rect x="257.8" y="378.8" class="st1" width="16" height="21.1"/>
		<text transform="matrix(1 6.740512e-03 -6.740512e-03 1 285.7997 391.1712)" class="st2 st3 st5">店铺名称</text>
		<text transform="matrix(1 6.740512e-03 -6.740512e-03 1 252.6331 391.1712)" class="st2 st3 st4">6-11</text>
	</g>
	<g>
		<rect x="257.8" y="357.2" class="st1" width="16" height="21.1"/>
		<text transform="matrix(1 6.740512e-03 -6.740512e-03 1 285.7997 375.0909)" class="st2 st3 st5">店铺名称</text>
		<text transform="matrix(1 6.740512e-03 -6.740512e-03 1 252.6331 375.0909)" class="st2 st3 st4">6-10</text>
	</g>
	<g>
		<rect x="257.8" y="335.6" class="st1" width="16" height="21.1"/>
		<text transform="matrix(1 6.740512e-03 -6.740512e-03 1 285.7997 348.0111)" class="st2 st3 st5">店铺名称</text>
		<text transform="matrix(1 6.740512e-03 -6.740512e-03 1 252.6331 348.0111)" class="st2 st3 st4">6-09</text>
	</g>
	<g>
		<rect x="257.8" y="314" class="st1" width="16" height="21.1"/>
		<text transform="matrix(1 6.740512e-03 -6.740512e-03 1 285.8 329.9308)" class="st2 st3 st5">店铺名称</text>
		<text transform="matrix(1 6.740512e-03 -6.740512e-03 1 252.6334 329.9308)" class="st2 st3 st4">6-08</text>
	</g>
	<g>
		<rect x="540.8" y="721.3" class="st1" width="15.3" height="31.1"/>
		<text transform="matrix(1 0 0 1 527.6714 742.7761)" class="st2 st3 st4">16-19</text>
		<text transform="matrix(1 0 0 1 569.2281 741.8235)" class="st2 st3 st5">店铺名称</text>
	</g>
	<g>
		<rect x="613.5" y="699.1" class="st1" width="16.1" height="24.4"/>
		<text transform="matrix(1 0 0 1 612.1605 724.5002)" class="st2 st3 st4">16-30</text>
		<text transform="matrix(1 0 0 1 650.9105 724.5002)" class="st2 st3 st5">店铺名称</text>
	</g>
	<g>
		<rect x="589.9" y="699.1" class="st1" width="16.1" height="24.4"/>
		<text transform="matrix(1 0 0 1 589.9001 708.5005)" class="st2 st3 st4">16-29</text>
		<text transform="matrix(1 0 0 1 627.9001 708.5005)" class="st2 st3 st5">店铺名称</text>
	</g>
	<g>
		<rect x="565.4" y="699.1" class="st1" width="16.1" height="24.4"/>
		<text transform="matrix(1 0 0 1 546.1248 707.9424)" class="st2 st3 st4">16-28</text>
		<text transform="matrix(1 0 0 1 547.4506 721.1179)" class="st2 st3 st5">店铺名称</text>
	</g>
	<g>
		<polygon class="st1" points="691.4,729.1 691.4,811.9 747.9,811.9 747.9,776.8 719.4,729.1 		"/>
		<text transform="matrix(1 0 0 1 692.5695 761.9441)" class="st2 st3 st4">16-25</text>
		<text transform="matrix(1 0 0 1 732.4376 760.4441)" class="st2 st3 st5">店铺名称</text>
	</g>
	<g>
		<rect x="630.6" y="750.9" class="st1" width="59.3" height="30.9"/>
		<text transform="matrix(1 0 0 1 630.6002 779.4741)" class="st2 st3 st4">16-26</text>
		<text transform="matrix(1 0 0 1 672.1002 778.4739)" class="st2 st3 st5">店铺名称</text>
	</g>
	<g>
		<rect x="570.4" y="750.9" class="st1" width="59.3" height="30.9"/>
		<text transform="matrix(1 0 0 1 570.3997 763.4446)" class="st2 st3 st4">16-27</text>
		<text transform="matrix(1 0 0 1 609.3997 763.4443)" class="st2 st3 st5">店铺名称</text>
	</g>
</svg>
